<svg width="24" height="24" viewBox="0 0 24 24" fill="none" xmlns="http://www.w3.org/2000/svg">
<path d="M7.20011 12C7.20011 11.3 7.47011 10.6 8.00011 10.07L14.5201 3.54998C14.6612 3.4105 14.8517 3.33228 15.0501 3.33228C15.2485 3.33228 15.439 3.4105 15.5801 3.54998C15.8701 3.83998 15.8701 4.31998 15.5801 4.60998L9.06011 11.13C8.58011 11.61 8.58011 12.39 9.06011 12.87L15.5801 19.39C15.8701 19.68 15.8701 20.16 15.5801 20.45C15.2901 20.74 14.8101 20.74 14.5201 20.45L8.00011 13.93C7.47011 13.4 7.20011 12.7 7.20011 12Z" fill="#FFF"/>
</svg>
