<svg width="18" height="9" viewBox="0 0 18 9" fill="none" xmlns="http://www.w3.org/2000/svg">
<path d="M8.99998 8.80001C8.29998 8.80001 7.59998 8.53001 7.06998 8.00001L0.549977 1.48001C0.410497 1.33888 0.332275 1.14844 0.332275 0.950014C0.332275 0.751584 0.410497 0.561152 0.549977 0.420015C0.839977 0.130015 1.31998 0.130015 1.60998 0.420015L8.12998 6.94001C8.60998 7.42001 9.38998 7.42001 9.86998 6.94001L16.39 0.420015C16.68 0.130015 17.16 0.130015 17.45 0.420015C17.74 0.710015 17.74 1.19001 17.45 1.48001L10.93 8.00001C10.4 8.53001 9.69998 8.80001 8.99998 8.80001Z" fill="#CCC"/>
</svg>
