<svg width="20" height="20" viewBox="0 0 20 20" fill="none" xmlns="http://www.w3.org/2000/svg">
<path d="M10.0076 0C15.5263 0 20 4.47716 20 10C20 15.5229 15.5263 20 10.0076 20C4.48891 20 0.0151367 15.5229 0.0151367 10C0.0151367 4.47716 4.48891 0 10.0076 0ZM10.0076 1.49977C5.31658 1.49977 1.51377 5.30546 1.51377 10C1.51377 14.6946 5.31658 18.5002 10.0076 18.5002C14.6986 18.5002 18.5014 14.6946 18.5014 10C18.5014 5.30546 14.6986 1.49977 10.0076 1.49977ZM10.0039 8.49925C10.3833 8.49905 10.697 8.78091 10.7468 9.14696L10.7537 9.24864L10.7573 14.7494C10.7576 15.1635 10.4223 15.4996 10.0085 15.4998C9.62915 15.5001 9.31544 15.2181 9.26558 14.8522L9.25869 14.7504L9.25509 9.24964C9.25489 8.8355 9.59009 8.49955 10.0039 8.49925ZM10.008 5.00205C10.5591 5.00205 11.0058 5.4491 11.0058 6.00057C11.0058 6.55202 10.5591 6.99907 10.008 6.99907C9.45701 6.99907 9.01031 6.55202 9.01031 6.00057C9.01031 5.4491 9.45701 5.00205 10.008 5.00205Z" fill="#797979"/>
</svg>
