<svg width="20" height="20" viewBox="0 0 20 20" fill="#FFF" xmlns="http://www.w3.org/2000/svg">
<path d="M14.75 0C16.5449 0 18 1.45507 18 3.25V10.05C17.6306 10.125 17.2907 10.2815 17 10.4998C17 9.937 16.8139 9.4176 16.5 8.9998V5.5H1.5V14.75C1.5 15.7165 2.2835 16.5 3.25 16.5H8V18H3.25C1.45507 18 0 16.5449 0 14.75V3.25C0 1.45507 1.45507 0 3.25 0H14.75ZM14.75 1.5H3.25C2.2835 1.5 1.5 2.2835 1.5 3.25V4H16.5V3.25C16.5 2.2835 15.7165 1.5 14.75 1.5ZM14.5 9C13.6716 9 13 9.6716 13 10.5V18.5C13 19.3284 13.6716 20 14.5 20C15.3284 20 16 19.3284 16 18.5V10.5C16 9.6716 15.3284 9 14.5 9ZM10.5 13C9.6716 13 9 13.6716 9 14.5V18.5C9 19.3284 9.6716 20 10.5 20C11.3284 20 12 19.3284 12 18.5V14.5C12 13.6716 11.3284 13 10.5 13ZM17 12.5C17 11.6716 17.6716 11 18.5 11C19.3284 11 20 11.6716 20 12.5V18.5C20 19.3284 19.3284 20 18.5 20C17.6716 20 17 19.3284 17 18.5V12.5Z" fill="#C2C0FF"/>
</svg>
