<svg width="21" height="21" viewBox="0 0 21 21" fill="$FFF" xmlns="http://www.w3.org/2000/svg">
<path d="M10.5 0.75C10.5 0.33579 10.1642 0 9.75 0C9.3358 0 9 0.33579 9 0.75V1H3.25C1.45507 1 0 2.45507 0 4.25V13.75C0 15.5449 1.45507 17 3.25 17H5.64847L4.17333 18.7699C3.90813 19.0881 3.95109 19.561 4.26928 19.8262C4.58747 20.0914 5.0604 20.0485 5.32559 19.7303L7.60114 17H11.1089C11.2868 16.3851 11.672 15.8583 12.1837 15.5H3.25C2.2835 15.5 1.5 14.7165 1.5 13.75V4.25C1.5 3.2835 2.2835 2.5 3.25 2.5H16.75C17.7165 2.5 18.5 3.2835 18.5 4.25V9.6273C19.4067 10.2598 20 11.3106 20 12.5V4.25C20 2.45507 18.5449 1 16.75 1H10.5V0.75ZM4 5.75C4 5.33579 4.33579 5 4.75 5H8.75C9.1642 5 9.5 5.33579 9.5 5.75C9.5 6.16421 9.1642 6.5 8.75 6.5H4.75C4.33579 6.5 4 6.16421 4 5.75ZM4.75 8C4.33579 8 4 8.3358 4 8.75C4 9.1642 4.33579 9.5 4.75 9.5H11.25C11.6642 9.5 12 9.1642 12 8.75C12 8.3358 11.6642 8 11.25 8H4.75ZM4 11.75C4 11.3358 4.33579 11 4.75 11H10.25C10.6642 11 11 11.3358 11 11.75C11 12.1642 10.6642 12.5 10.25 12.5H4.75C4.33579 12.5 4 12.1642 4 11.75ZM19 12.5C19 13.8807 17.8807 15 16.5 15C15.1193 15 14 13.8807 14 12.5C14 11.1193 15.1193 10 16.5 10C17.8807 10 19 11.1193 19 12.5ZM21 17.875C21 19.4315 19.7143 21 16.5 21C13.2857 21 12 19.4374 12 17.875V17.772C12 16.7929 12.7937 16 13.7727 16H19.2273C20.2063 16 21 16.793 21 17.772V17.875Z" fill="#C2C0FF"/>
</svg>
